<svg xmlns="http://www.w3.org/2000/svg" aria-hidden="true" style="position:absolute;width:0;height:0;overflow:hidden"><defs><symbol id="icon-user-circle" viewBox="0 0 28 28"><path d="M23.797 20.922c-.406-2.922-1.594-5.516-4.25-5.875-1.375 1.5-3.359 2.453-5.547 2.453s-4.172-.953-5.547-2.453c-2.656.359-3.844 2.953-4.25 5.875C6.375 23.985 9.953 26 14 26s7.625-2.016 9.797-5.078zM20 10c0-3.313-2.688-6-6-6s-6 2.688-6 6 2.688 6 6 6 6-2.688 6-6zm8 4c0 7.703-6.25 14-14 14-7.734 0-14-6.281-14-14C0 6.266 6.266 0 14 0s14 6.266 14 14z"/></symbol><symbol id="icon-book" viewBox="0 0 32 32"><path d="M28 4v26H7a3 3 0 1 1 0-6h19V0H6C3.8 0 2 1.8 2 4v24c0 2.2 1.8 4 4 4h24V4h-2z"/><path d="M7.002 26H7a1 1 0 0 0 0 2h18.999v-2H7.002z"/></symbol><symbol id="icon-pushpin" viewBox="0 0 32 32"><path d="m17 0-3 3 3 3-7 8H3l5.5 5.5L0 30.769V32h1.231L12.5 23.5 18 29v-7l8-7 3 3 3-3L17 0zm-3 17-2-2 7-7 2 2-7 7z"/></symbol><symbol id="icon-sphere" viewBox="0 0 32 32"><path d="M15 2C6.716 2 0 8.716 0 17s6.716 15 15 15c8.284 0 15-6.716 15-15S23.284 2 15 2zm8.487 20c.268-1.264.437-2.606.492-4h3.983a12.866 12.866 0 0 1-.959 4h-3.516zM6.513 12a23.855 23.855 0 0 0-.492 4H2.038c.104-1.381.426-2.722.959-4h3.516zm14.926 0c.3 1.28.481 2.62.54 4H16v-4h5.439zM16 10V4.146c.456.133.908.355 1.351.668.831.586 1.625 1.488 2.298 2.609.465.775.867 1.638 1.203 2.578H16zm-5.649-2.578c.673-1.121 1.467-2.023 2.298-2.609A4.557 4.557 0 0 1 14 4.145v5.854H9.148c.336-.94.738-1.803 1.203-2.578zM14 12v4H8.021c.059-1.38.24-2.72.54-4H14zM2.997 22a12.894 12.894 0 0 1-.959-4h3.983c.055 1.394.224 2.736.492 4H2.997zm5.024-4H14v4H8.561c-.3-1.28-.481-2.62-.54-4zM14 24v5.854a4.557 4.557 0 0 1-1.351-.668c-.831-.586-1.625-1.488-2.298-2.609a14.478 14.478 0 0 1-1.203-2.578H14zm5.649 2.578c-.673 1.121-1.467 2.023-2.298 2.609a4.581 4.581 0 0 1-1.351.668v-5.854h4.852a14.51 14.51 0 0 1-1.203 2.578zM16 22v-4h5.979c-.059 1.38-.24 2.72-.54 4H16zm7.98-6a23.855 23.855 0 0 0-.492-4h3.516c.533 1.278.855 2.619.959 4H23.98zm1.978-6h-2.997c-.582-1.836-1.387-3.447-2.354-4.732a12.974 12.974 0 0 1 3.585 2.54A13.07 13.07 0 0 1 25.958 10zM5.808 7.808a12.974 12.974 0 0 1 3.585-2.54C8.426 6.553 7.622 8.164 7.039 10H4.042a12.97 12.97 0 0 1 1.766-2.192zM4.042 24h2.997c.583 1.836 1.387 3.447 2.354 4.732a12.974 12.974 0 0 1-3.585-2.54A13.07 13.07 0 0 1 4.042 24zm20.15 2.192a12.974 12.974 0 0 1-3.585 2.54c.967-1.285 1.771-2.896 2.354-4.732h2.997a12.97 12.97 0 0 1-1.766 2.192z"/></symbol><symbol id="icon-warning" viewBox="0 0 32 32"><path d="m16 2.899 13.409 26.726H2.59L15.999 2.899zM16 0c-.69 0-1.379.465-1.903 1.395L.438 28.617C-.608 30.477.282 32 2.416 32h27.166c2.134 0 3.025-1.522 1.978-3.383L17.901 1.395C17.378.465 16.688 0 15.998 0z"/><path d="M18 26a2 2 0 1 1-3.999.001A2 2 0 0 1 18 26zm-2-4a2 2 0 0 1-2-2v-6a2 2 0 1 1 4 0v6a2 2 0 0 1-2 2z"/></symbol><symbol id="icon-cancel-circle" viewBox="0 0 32 32"><path d="M31.708 25.708 22 16l9.708-9.708a1 1 0 0 0 0-1.414L27.122.292a1 1 0 0 0-1.414-.001L16 9.999 6.292.291a.998.998 0 0 0-1.414.001L.292 4.878a1 1 0 0 0 0 1.414L10 16 .292 25.708a.999.999 0 0 0 0 1.414l4.586 4.586a1 1 0 0 0 1.414 0L16 22l9.708 9.708a1 1 0 0 0 1.414 0l4.586-4.586a.999.999 0 0 0 0-1.414z"/></symbol><symbol id="icon-codepen" viewBox="0 0 32 32"><path d="m29.555 11.501-14-9.333a1 1 0 0 0-1.109 0l-14 9.333a1 1 0 0 0-.445.832v9.333a1 1 0 0 0 .445.832l14 9.333a.998.998 0 0 0 1.11 0l14-9.333a1 1 0 0 0 .445-.832v-9.333a1 1 0 0 0-.445-.832zM15 20.465 9.803 17 15 13.535 20.197 17 15 20.465zm1-8.667v-6.93l11.197 7.465L22 15.798l-6-4zm-2 0-6 4-5.197-3.465L14 4.868v6.93zM6.197 17 2 19.798v-5.596L6.197 17zM8 18.202l6 4v6.93L2.803 21.667 8 18.202zm8 4 6-4 5.197 3.465L16 29.132v-6.93zM23.803 17 28 14.202v5.596L23.803 17z"/></symbol></defs></svg>